<?xml version="1.0" encoding="UTF-8"?><svg id="uuid-101a7279-0637-44d3-a48b-cdc5383dda5f" xmlns="http://www.w3.org/2000/svg" viewBox="0 0 372.64 279.91"><path d="M160.38,239.3v32.39h12.06c8.03,0,14.6-6.57,14.6-14.6v-3.2c0-8.03-6.57-14.6-14.6-14.6h-12.06ZM151.8,231.15h3.78v-.07h16.86c12.55,0,22.82,10.27,22.82,22.82v3.2c0,12.55-10.27,22.82-22.82,22.82h-16.86v-.07h-3.78v-48.69ZM226.88,231.15h8.58v48.69h-8.58v-48.69ZM288.35,231.15h8.58l22.74,48.69h-8.58l-4.48-9.6h-28.12s-4.48,9.6-4.48,9.6h-8.58l22.74-48.69h.18ZM282.2,262.29h20.69s-10.35-22.16-10.35-22.16l-10.35,22.16ZM83.63,231.15l25.44,33.21v-33.21h8.58v48.69h-6.39l-25.44-33.21v33.21h-8.58v-48.69h6.39ZM272.08,134.59l37.95,78.15c10.57,4.56,20.4,4.66,29.35-.61l-43.15-88.26c-7.91,3.66-15.95,7.24-24.14,10.73ZM162.37,23.82c10.72-.21,10.26-20.72,0-22.32l-60.83-.31c-116.84,1.5-155.33,194.59,6.86,213.62,11.9-.48,22.88-4.47,30.28-12.32l37.35-73.93-6.45-11.41c4.33-.49,8.68-1.04,13.05-1.64l35.17-69.62c3.52-7.65,7.22-8.19,11.15-.15l27.08,55.76c4.07-.95,8.14-1.92,12.22-2.91,4.59-1.11,9.24-2.27,13.93-3.48L239.48,7.81c-8.45-9.58-17.19-11.41-26.45.54l-85.84,167.69c-4.13,7.83-9.81,12.3-16.8,13.99C8.01,193.94-19.03,37.09,105.33,22.76l57.04,1.06ZM265.45,137.38l38.69,78.71c1.1,1.66,2.29,2.61,3.6,2.54l-.77,4.15c-2.61-.47-4.84-2.17-6.74-5l-38.69-78.79c1.31-.53,2.61-1.07,3.9-1.61ZM217.9,50.13l3.06-3.23,27.68,56.3-4.21.94-26.53-54.02ZM33.05,231.15h8.58v48.69h-8.58v-48.69Z" style="fill:#0a70a1; fill-rule:evenodd;"/><path d="M169.57,117.16c32.02-3.65,65.02-10.4,98.66-18.56,24.55-5.96,50.82-13.34,75.77-20.44-42.53,24.15-95.69,37.88-144.11,51.65l14.21,28.95-16.75,7.51-27.79-49.11Z" style="fill:#f3782c; fill-rule:evenodd;"/><path d="M217.1,136.26c52.74-15.02,104.36-32.69,155.54-51.4-40.04,21.99-81.57,43.08-128.41,60.98l13.78,27.2-15.22,8.61-25.69-45.4Z" style="fill:#6cb94e; fill-rule:evenodd;"/></svg>